<?xml version="1.0" standalone="no"?><svg xmlns="http://www.w3.org/2000/svg" viewBox="0 0 1440 320"><path fill="#ff9688" fill-opacity="1" d="M0,96L20,128C40,160,80,224,120,224C160,224,200,160,240,128C280,96,320,96,360,96C400,96,440,96,480,117.3C520,139,560,181,600,218.7C640,256,680,288,720,266.7C760,245,800,171,840,165.3C880,160,920,224,960,218.7C1000,213,1040,139,1080,90.7C1120,43,1160,21,1200,16C1240,11,1280,21,1320,58.7C1360,96,1400,160,1420,192L1440,224L1440,320L1420,320C1400,320,1360,320,1320,320C1280,320,1240,320,1200,320C1160,320,1120,320,1080,320C1040,320,1000,320,960,320C920,320,880,320,840,320C800,320,760,320,720,320C680,320,640,320,600,320C560,320,520,320,480,320C440,320,400,320,360,320C320,320,280,320,240,320C200,320,160,320,120,320C80,320,40,320,20,320L0,320Z"></path></svg>