<svg width="24" height="24" viewBox="0 0 24 24" fill="none" xmlns="http://www.w3.org/2000/svg">
<path fill-rule="evenodd" clip-rule="evenodd" d="M12 21C7.029 21 3 16.971 3 12C3 7.029 7.029 3 12 3C16.971 3 21 7.029 21 12C21 13.2305 20.7531 14.4032 20.3062 15.4714C19.8866 16.4744 19.8429 20.2513 19.8429 20.2513C19.8429 20.2513 16.7241 19.7602 15.6 20.2513C14.4976 20.7329 13.28 21 12 21Z" stroke="#8A8C9B" stroke-width="1.5" stroke-linecap="round" stroke-linejoin="round"/>
<path fill-rule="evenodd" clip-rule="evenodd" d="M13.2857 11.9999V11.9999C12.5756 11.9999 12 11.4243 12 10.7142V10.7142C12 10.004 12.5756 9.42847 13.2857 9.42847V9.42847C13.9959 9.42847 14.5714 10.004 14.5714 10.7142V10.7142C14.5714 11.4243 13.9959 11.9999 13.2857 11.9999Z" stroke="#8A8C9B" stroke-width="1.5" stroke-linecap="round" stroke-linejoin="round"/>
<path fill-rule="evenodd" clip-rule="evenodd" d="M7.37165 11.9999V11.9999C6.66151 11.9999 6.08594 11.4243 6.08594 10.7142V10.7142C6.08594 10.004 6.66151 9.42847 7.37165 9.42847V9.42847C8.08179 9.42847 8.65737 10.004 8.65737 10.7142V10.7142C8.65737 11.4243 8.08179 11.9999 7.37165 11.9999Z" stroke="#8A8C9B" stroke-width="1.5" stroke-linecap="round" stroke-linejoin="round"/>
</svg>
