<svg width="24" height="24" viewBox="0 0 24 24" fill="none" xmlns="http://www.w3.org/2000/svg">
<g filter="url(#filter0_i_2084_93705)">
<path fill-rule="evenodd" clip-rule="evenodd" d="M2.25 12C2.25 6.61479 6.61479 2.25 12 2.25C17.3852 2.25 21.75 6.61479 21.75 12C21.75 17.3852 17.3852 21.75 12 21.75C6.61479 21.75 2.25 17.3852 2.25 12Z" fill="#0F82F7"/>
<path fill-rule="evenodd" clip-rule="evenodd" d="M2.25 12C2.25 6.61479 6.61479 2.25 12 2.25C17.3852 2.25 21.75 6.61479 21.75 12C21.75 17.3852 17.3852 21.75 12 21.75C6.61479 21.75 2.25 17.3852 2.25 12Z" fill="url(#paint0_linear_2084_93705)" fill-opacity="0.1"/>
</g>
<g filter="url(#filter1_d_2084_93705)">
<path fill-rule="evenodd" clip-rule="evenodd" d="M15.5318 8.47118C15.7366 8.67705 15.8041 8.98259 15.7051 9.25555L14.1732 13.4828C14.1001 13.6845 13.9441 13.8453 13.7447 13.9244L9.27661 15.6972C8.9984 15.8075 8.6812 15.7419 8.4696 15.5303C8.25799 15.3186 8.19251 15.0014 8.30298 14.7232L10.0902 10.2232C10.1699 10.0225 10.3323 9.8659 10.5357 9.79347L14.7484 8.29347C15.022 8.19609 15.3271 8.26531 15.5318 8.47118Z" fill="#80BBF8"/>
</g>
<defs>
<filter id="filter0_i_2084_93705" x="2.25" y="2.25" width="21.5" height="21.5" filterUnits="userSpaceOnUse" color-interpolation-filters="sRGB">
<feFlood flood-opacity="0" result="BackgroundImageFix"/>
<feBlend mode="normal" in="SourceGraphic" in2="BackgroundImageFix" result="shape"/>
<feColorMatrix in="SourceAlpha" type="matrix" values="0 0 0 0 0 0 0 0 0 0 0 0 0 0 0 0 0 0 127 0" result="hardAlpha"/>
<feOffset dx="2" dy="2"/>
<feGaussianBlur stdDeviation="2.1"/>
<feComposite in2="hardAlpha" operator="arithmetic" k2="-1" k3="1"/>
<feColorMatrix type="matrix" values="0 0 0 0 1 0 0 0 0 1 0 0 0 0 1 0 0 0 0.54 0"/>
<feBlend mode="normal" in2="shape" result="effect1_innerShadow_2084_93705"/>
</filter>
<filter id="filter1_d_2084_93705" x="7.75" y="8.25" width="8.5" height="8.5" filterUnits="userSpaceOnUse" color-interpolation-filters="sRGB">
<feFlood flood-opacity="0" result="BackgroundImageFix"/>
<feColorMatrix in="SourceAlpha" type="matrix" values="0 0 0 0 0 0 0 0 0 0 0 0 0 0 0 0 0 0 127 0" result="hardAlpha"/>
<feOffset dy="0.5"/>
<feGaussianBlur stdDeviation="0.25"/>
<feComposite in2="hardAlpha" operator="out"/>
<feColorMatrix type="matrix" values="0 0 0 0 0 0 0 0 0 0 0 0 0 0 0 0 0 0 0.12 0"/>
<feBlend mode="normal" in2="BackgroundImageFix" result="effect1_dropShadow_2084_93705"/>
<feBlend mode="normal" in="SourceGraphic" in2="effect1_dropShadow_2084_93705" result="shape"/>
</filter>
<linearGradient id="paint0_linear_2084_93705" x1="2.02748" y1="5.19766" x2="20.128" y2="21.1847" gradientUnits="userSpaceOnUse">
<stop stop-opacity="0"/>
<stop offset="1"/>
</linearGradient>
</defs>
</svg>
