<svg width="24" height="24" viewBox="0 0 24 24" fill="none" xmlns="http://www.w3.org/2000/svg">
<path d="M6 7.5L3.5 12.5L6 13.5L12.5 8.5L13 4L10 4.5L6 7.5Z" fill="#E8CFFF"/>
<g filter="url(#filter0_i_2084_93712)">
<path fill-rule="evenodd" clip-rule="evenodd" d="M2.28328 12.7855C4.89197 4.31004 10.7927 2.50604 13.6384 2.77504C13.8813 2.798 14.0978 2.93764 14.2189 3.14941L20.7668 14.6C21.4567 15.8066 21.2568 17.3252 20.278 18.312L18.8114 19.7909C17.8498 20.7605 16.366 20.9844 15.1611 20.3418L2.64716 13.6679C2.33021 13.4989 2.17761 13.1289 2.28328 12.7855ZM12.6129 4.27136C11.8532 6.72816 9.4483 10.637 4.13628 12.0015C6.36677 6.11672 10.3188 4.46916 12.6129 4.27136Z" fill="#A038FF"/>
<path fill-rule="evenodd" clip-rule="evenodd" d="M2.28328 12.7855C4.89197 4.31004 10.7927 2.50604 13.6384 2.77504C13.8813 2.798 14.0978 2.93764 14.2189 3.14941L20.7668 14.6C21.4567 15.8066 21.2568 17.3252 20.278 18.312L18.8114 19.7909C17.8498 20.7605 16.366 20.9844 15.1611 20.3418L2.64716 13.6679C2.33021 13.4989 2.17761 13.1289 2.28328 12.7855ZM12.6129 4.27136C11.8532 6.72816 9.4483 10.637 4.13628 12.0015C6.36677 6.11672 10.3188 4.46916 12.6129 4.27136Z" fill="url(#paint0_linear_2084_93712)" fill-opacity="0.2"/>
</g>
<defs>
<filter id="filter0_i_2084_93712" x="2.25" y="2.75" width="20.9248" height="19.9556" filterUnits="userSpaceOnUse" color-interpolation-filters="sRGB">
<feFlood flood-opacity="0" result="BackgroundImageFix"/>
<feBlend mode="normal" in="SourceGraphic" in2="BackgroundImageFix" result="shape"/>
<feColorMatrix in="SourceAlpha" type="matrix" values="0 0 0 0 0 0 0 0 0 0 0 0 0 0 0 0 0 0 127 0" result="hardAlpha"/>
<feOffset dx="2" dy="2"/>
<feGaussianBlur stdDeviation="2.1"/>
<feComposite in2="hardAlpha" operator="arithmetic" k2="-1" k3="1"/>
<feColorMatrix type="matrix" values="0 0 0 0 1 0 0 0 0 1 0 0 0 0 1 0 0 0 0.54 0"/>
<feBlend mode="normal" in2="shape" result="effect1_innerShadow_2084_93712"/>
</filter>
<linearGradient id="paint0_linear_2084_93712" x1="2.03405" y1="5.46421" x2="18.7867" y2="21.0593" gradientUnits="userSpaceOnUse">
<stop stop-opacity="0"/>
<stop offset="1"/>
</linearGradient>
</defs>
</svg>
