<svg width="24" height="24" viewBox="0 0 24 24" fill="none" xmlns="http://www.w3.org/2000/svg">
<path fill-rule="evenodd" clip-rule="evenodd" d="M14.6273 15.7918L9.45846 17.5147C8.87493 17.3384 8.02333 16.3291 7.73551 15.7918C7.44768 15.2544 4.01577 11.2064 4.19222 10.6229L6.14999 3.65802C6.42583 2.74705 7.38763 2.23188 8.2988 2.50705L18.0732 5.45392L19.1418 7.17699C20.0527 7.45283 20.0714 9.13742 19.7962 10.0486L17.4924 14.2571C17.316 14.8406 16.9152 15.3302 16.3778 15.6181C15.8405 15.9059 15.2108 15.9684 14.6273 15.7918Z" stroke="#323232" stroke-width="1.5" stroke-linecap="round" stroke-linejoin="round"/>
<path fill-rule="evenodd" clip-rule="evenodd" d="M19.2248 21.5395H5.43544C4.82586 21.5397 4.2412 21.2976 3.81016 20.8666C3.37912 20.4355 3.13721 19.8509 3.13721 19.2413V7.17558C3.13756 6.22376 3.90907 5.45225 4.86088 5.4519H19.7994C20.7512 5.45225 21.5227 6.22376 21.523 7.17558V19.2413C21.523 19.8509 21.2811 20.4355 20.8501 20.8666C20.4191 21.2976 19.8344 21.5397 19.2248 21.5395Z" fill="#D9D9D9" stroke="#323232" stroke-width="1.5" stroke-linecap="round" stroke-linejoin="round"/>
<path fill-rule="evenodd" clip-rule="evenodd" d="M12.9652 10.4588C12.846 10.2076 12.6 10.0486 12.3306 10.0486C12.0611 10.0486 11.8151 10.2076 11.696 10.4588L11.1788 11.5488C11.0762 11.7659 10.8769 11.9163 10.6465 11.9505L9.48815 12.1297C9.22186 12.1703 9.0008 12.3644 8.9178 12.6306C8.83481 12.8967 8.90425 13.1887 9.09697 13.384L9.93426 14.2327C10.1014 14.4013 10.1773 14.6451 10.1369 14.8835L9.93994 16.0808C9.89407 16.3566 10.003 16.6355 10.2208 16.8001C10.4387 16.9646 10.7275 16.9862 10.9657 16.8556L12 16.2905C12.2072 16.1755 12.4559 16.1755 12.663 16.2905L13.6964 16.8556C13.9346 16.9862 14.2234 16.9646 14.4413 16.8001C14.6591 16.6355 14.768 16.3566 14.7221 16.0808L14.5251 14.8835C14.4853 14.6451 14.5611 14.4016 14.7278 14.2327L15.5613 13.384C15.754 13.1889 15.8236 12.897 15.7408 12.6309C15.658 12.3648 15.4372 12.1706 15.1711 12.1297L14.0136 11.9505C13.7832 11.9163 13.5839 11.7659 13.4813 11.5488L12.9652 10.4588Z" fill="#8287FF"/>
</svg>
