<svg width="24" height="24" viewBox="0 0 24 24" fill="none" xmlns="http://www.w3.org/2000/svg">
<rect x="3" y="6" width="18" height="15" rx="3" stroke="#323232" stroke-width="1.5" stroke-linecap="round" stroke-linejoin="round"/>
<path d="M5.5 3H18.5" stroke="#8287FF" stroke-width="1.5" stroke-linecap="round" stroke-linejoin="round"/>
<path fill-rule="evenodd" clip-rule="evenodd" d="M11.2152 10.4878C11.3626 10.1891 11.6668 10 11.9999 10C12.333 10 12.6372 10.1891 12.7845 10.4878L13.2297 11.3903C13.3572 11.6486 13.6035 11.8277 13.8886 11.8691L14.8844 12.0138C15.2139 12.0618 15.4877 12.2926 15.5906 12.6092C15.6936 12.9259 15.6079 13.2735 15.3695 13.506L14.6486 14.2092C14.4425 14.4102 14.3485 14.6998 14.3972 14.9835L14.5673 15.9751C14.6235 16.3033 14.4886 16.6351 14.2192 16.8308C13.9498 17.0266 13.5927 17.0524 13.2979 16.8975L12.4069 16.4293C12.1521 16.2954 11.8477 16.2954 11.5928 16.4293L10.7019 16.8975C10.4071 17.0524 10.0499 17.0266 9.78051 16.8308C9.51111 16.6351 9.37619 16.3033 9.43246 15.9751L9.60257 14.9835C9.65123 14.6998 9.55721 14.4102 9.35113 14.2092L8.63022 13.506C8.39187 13.2735 8.30616 12.9259 8.4091 12.6092C8.51204 12.2926 8.78579 12.0618 9.1153 12.0138L10.1112 11.8691C10.3962 11.8277 10.6426 11.6486 10.77 11.3903L11.2152 10.4878Z" fill="#8287FF"/>
</svg>
