<svg width="24" height="24" viewBox="0 0 24 24" fill="none" xmlns="http://www.w3.org/2000/svg">
<rect width="24" height="24" rx="6" fill="#F5E2FE"/>
<path fill-rule="evenodd" clip-rule="evenodd" d="M14.5114 3.60747C14.5114 3.1451 14.1366 2.77026 13.6742 2.77026C13.2118 2.77026 12.837 3.1451 12.837 3.60747V4.27724C12.837 4.35428 12.837 4.3928 12.8153 4.41672C12.7937 4.44065 12.7524 4.44474 12.6698 4.45293H12.6698C11.8236 4.53683 11.1626 5.25078 11.1626 6.1191V7.1657H12.837V6.28654C12.837 6.2095 12.837 6.17099 12.8587 6.14706C12.8804 6.12314 12.9216 6.11904 13.0042 6.11086C13.8505 6.02696 14.5114 5.31301 14.5114 4.44468V3.60747Z" fill="url(#paint0_linear_2040_94169)"/>
<path fill-rule="evenodd" clip-rule="evenodd" d="M14.134 7.16577H9.86603C8.5246 7.16576 7.46188 7.16575 6.62114 7.26513C5.758 7.36716 5.04746 7.58135 4.45393 8.06845C4.25257 8.2337 4.06793 8.41834 3.90268 8.6197C3.41558 9.21323 3.20139 9.92377 3.09936 10.7869C2.99998 11.6276 2.99999 12.6904 3 14.0318V14.0318V14.1137V14.1137C2.99999 15.4551 2.99998 16.5179 3.09936 17.3586C3.20139 18.2217 3.41558 18.9323 3.90268 19.5258C4.06793 19.7272 4.25257 19.9118 4.45393 20.077C5.04746 20.5641 5.758 20.7783 6.62114 20.8804C7.46186 20.9797 8.52456 20.9797 9.86595 20.9797H14.134C15.4754 20.9797 16.5381 20.9797 17.3789 20.8804C18.242 20.7783 18.9525 20.5641 19.5461 20.077C19.7474 19.9118 19.9321 19.7272 20.0973 19.5258C20.5844 18.9323 20.7986 18.2217 20.9006 17.3586C21 16.5179 21 15.4552 21 14.1137V14.0318C21 12.6904 21 11.6276 20.9006 10.7869C20.7986 9.92377 20.5844 9.21323 20.0973 8.6197C19.9321 8.41834 19.7474 8.2337 19.5461 8.06845C18.9525 7.58135 18.242 7.36716 17.3789 7.26513C16.5381 7.16575 15.4754 7.16576 14.134 7.16577ZM10.7696 12.3729C11.0148 12.6181 11.0148 13.0156 10.7696 13.2609L9.95776 14.0727L10.7696 14.8845C11.0148 15.1297 11.0148 15.5273 10.7696 15.7725C10.5244 16.0177 10.1268 16.0177 9.88158 15.7725L9.06977 14.9607L8.25795 15.7725C8.01274 16.0177 7.61517 16.0177 7.36996 15.7725C7.12474 15.5273 7.12474 15.1297 7.36996 14.8845L8.18177 14.0727L7.36996 13.2609C7.12474 13.0156 7.12474 12.6181 7.36996 12.3729C7.61517 12.1277 8.01274 12.1277 8.25795 12.3729L9.06977 13.1847L9.88158 12.3729C10.1268 12.1277 10.5244 12.1277 10.7696 12.3729ZM17.0233 13.2355C17.0233 12.7731 16.6484 12.3983 16.186 12.3983C15.7237 12.3983 15.3488 12.7731 15.3488 13.2355V14.9099C15.3488 15.3723 15.7237 15.7471 16.186 15.7471C16.6484 15.7471 17.0233 15.3723 17.0233 14.9099V13.2355Z" fill="url(#paint1_linear_2040_94169)"/>
<defs>
<linearGradient id="paint0_linear_2040_94169" x1="12.837" y1="2.77026" x2="12.837" y2="7.16561" gradientUnits="userSpaceOnUse">
<stop stop-color="#DDBAF4"/>
<stop offset="1" stop-color="#A038FF"/>
</linearGradient>
<linearGradient id="paint1_linear_2040_94169" x1="12" y1="7.16577" x2="12" y2="20.9797" gradientUnits="userSpaceOnUse">
<stop stop-color="#DDBAF4"/>
<stop offset="1" stop-color="#A038FF"/>
</linearGradient>
</defs>
</svg>
