<svg width="24" height="24" viewBox="0 0 24 24" fill="none" xmlns="http://www.w3.org/2000/svg">
<path d="M21.0037 12C21.0037 16.9726 16.9726 21.0037 12 21.0037" stroke="#323232" stroke-width="1.5" stroke-linecap="round" stroke-linejoin="round"/>
<path d="M2.99658 12.0001C2.99658 7.02745 7.0277 2.99634 12.0003 2.99634" stroke="#323232" stroke-width="1.5" stroke-linecap="round" stroke-linejoin="round"/>
<path fill-rule="evenodd" clip-rule="evenodd" d="M2.99658 12.0002C2.99672 13.0549 3.1843 14.1011 3.55057 15.0901C3.71808 15.5494 4.19035 15.823 4.67214 15.7398L5.65874 15.5658C6.45615 15.4252 6.99821 14.6773 6.8837 13.8758L6.58676 11.7972C6.52927 11.3948 6.311 11.0329 5.98188 10.7944C5.65276 10.5558 5.24094 10.461 4.84064 10.5316L3.07932 10.8422" fill="#8287FF"/>
<path d="M2.99658 12.0002C2.99672 13.0549 3.1843 14.1011 3.55057 15.0901C3.71808 15.5494 4.19035 15.823 4.67214 15.7398L5.65874 15.5658C6.45615 15.4252 6.99821 14.6773 6.8837 13.8758L6.58676 11.7972C6.52927 11.3948 6.311 11.0329 5.98188 10.7944C5.65276 10.5558 5.24094 10.461 4.84064 10.5316L3.07932 10.8422" stroke="#8287FF" stroke-width="1.5" stroke-linecap="round" stroke-linejoin="round"/>
<path d="M21.0037 12.0001C21.0037 7.02745 16.9726 2.99634 12 2.99634" stroke="#323232" stroke-width="1.5" stroke-linecap="round" stroke-linejoin="round"/>
<path fill-rule="evenodd" clip-rule="evenodd" d="M21.0039 12.0002C21.0038 13.0549 20.8162 14.1011 20.4499 15.0901C20.2824 15.5494 19.8102 15.823 19.3284 15.7398L18.3418 15.5658C17.5444 15.4252 17.0023 14.6773 17.1168 13.8758L17.4138 11.7972C17.4713 11.3948 17.6895 11.0329 18.0186 10.7944C18.3478 10.5558 18.7596 10.461 19.1599 10.5316L20.9212 10.8422" fill="#8287FF"/>
<path d="M21.0039 12.0002C21.0038 13.0549 20.8162 14.1011 20.4499 15.0901C20.2824 15.5494 19.8102 15.823 19.3284 15.7398L18.3418 15.5658C17.5444 15.4252 17.0023 14.6773 17.1168 13.8758L17.4138 11.7972C17.4713 11.3948 17.6895 11.0329 18.0186 10.7944C18.3478 10.5558 18.7596 10.461 19.1599 10.5316L20.9212 10.8422" stroke="#8287FF" stroke-width="1.5" stroke-linecap="round" stroke-linejoin="round"/>
<path d="M13.4934 12.4913C13.4904 12.4913 13.4876 12.4931 13.4865 12.4959C13.4853 12.4987 13.4859 12.5019 13.4881 12.504C13.4902 12.5062 13.4934 12.5068 13.4962 12.5057C13.499 12.5045 13.5008 12.5018 13.5008 12.4987C13.501 12.4967 13.5002 12.4948 13.4988 12.4933C13.4974 12.4919 13.4954 12.4912 13.4934 12.4913" stroke="#8287FF" stroke-width="1.5" stroke-linecap="round" stroke-linejoin="round"/>
<path d="M10.507 12.4942C10.504 12.4942 10.5013 12.496 10.5001 12.4988C10.499 12.5016 10.4996 12.5048 10.5018 12.507C10.5039 12.5091 10.5071 12.5097 10.5099 12.5086C10.5127 12.5074 10.5145 12.5047 10.5145 12.5017C10.5146 12.4997 10.5139 12.4977 10.5125 12.4962C10.511 12.4948 10.5091 12.4941 10.507 12.4942" stroke="#8287FF" stroke-width="1.5" stroke-linecap="round" stroke-linejoin="round"/>
</svg>
