<svg width="792" height="693" viewBox="0 0 792 693" fill="none" xmlns="http://www.w3.org/2000/svg">
<g id="Camera Access">
<path id="Stroke 1" fill-rule="evenodd" clip-rule="evenodd" d="M715.594 379.825C715.594 551.788 576.187 691.195 404.224 691.195C232.261 691.195 92.8568 551.788 92.8568 379.825C92.8568 207.862 232.261 68.4551 404.224 68.4551C576.187 68.4551 715.594 207.862 715.594 379.825Z" stroke="#E9EAEC" stroke-dasharray="5.02 5.02"/>
<path id="Stroke 3" fill-rule="evenodd" clip-rule="evenodd" d="M635.449 379.825C635.449 507.526 531.925 611.05 404.224 611.05C276.52 611.05 173.002 507.526 173.002 379.825C173.002 252.124 276.52 148.6 404.224 148.6C531.925 148.6 635.449 252.124 635.449 379.825Z" stroke="#E9EAEC" stroke-dasharray="5.05 5.05"/>
<path id="Stroke 5" d="M34.0345 421.747L28.2535 421.57" stroke="#D2D8DF" stroke-linecap="round"/>
<path id="Stroke 7" d="M29.8873 410.783L25.7413 414.656" stroke="#D2D8DF" stroke-linecap="round"/>
<path id="Stroke 9" d="M19.0813 405.779L18.9943 411.431" stroke="#D2D8DF" stroke-linecap="round"/>
<path id="Stroke 11" d="M7.94385 409.658L11.9698 413.78" stroke="#D2D8DF" stroke-linecap="round"/>
<path id="Stroke 13" d="M3 420.158L8.778 420.335" stroke="#D2D8DF" stroke-linecap="round"/>
<path id="Stroke 15" d="M7.14587 431.121L11.2949 427.248" stroke="#D2D8DF" stroke-linecap="round"/>
<path id="Stroke 17" d="M17.9531 436.123L18.0401 430.471" stroke="#D2D8DF" stroke-linecap="round"/>
<path id="Stroke 19" d="M29.0906 432.243L25.0646 428.121" stroke="#D2D8DF" stroke-linecap="round"/>
<path id="Stroke 21" d="M787.943 341.168L785.402 343.919" stroke="#D2D8DF" stroke-linecap="round"/>
<path id="Stroke 23" d="M776.013 343.559L777.93 345.326" stroke="#D2D8DF" stroke-linecap="round"/>
<path id="Stroke 25" d="M774.079 355.749L776.62 352.998" stroke="#D2D8DF" stroke-linecap="round"/>
<path id="Stroke 27" d="M786.006 353.359L784.092 351.592" stroke="#D2D8DF" stroke-linecap="round"/>
<path id="Stroke 29" d="M555.211 17.8427L549.064 17.6777" stroke="#D2D8DF" stroke-linecap="round"/>
<path id="Stroke 31" d="M539.306 3L539.213 8.253" stroke="#D2D8DF" stroke-linecap="round"/>
<path id="Stroke 33" d="M522.2 16.3594L528.347 16.5214" stroke="#D2D8DF" stroke-linecap="round"/>
<path id="Stroke 35" d="M538.104 31.2042L538.197 25.9512" stroke="#D2D8DF" stroke-linecap="round"/>
<path id="Fill 37" fill-rule="evenodd" clip-rule="evenodd" d="M100.011 585.019C95.589 586.342 88.224 592.84 85.704 600.544C85.281 593.386 80.736 584.389 75.735 583.093C81.837 580.936 88.446 573.007 90.204 566.326C89.886 573.328 96.243 583.495 100.011 585.019Z" fill="#EBECEF"/>
<path id="Fill 39" fill-rule="evenodd" clip-rule="evenodd" d="M203.578 45.9762C200.167 46.5792 194.122 50.7792 191.578 56.2992C191.881 50.9322 189.274 43.8372 185.662 42.4392C190.393 41.3592 196.003 36.0252 197.89 31.2012C197.047 36.3912 200.902 44.5152 203.578 45.9762Z" fill="#EBECEF"/>
<path id="Fill 41" fill-rule="evenodd" clip-rule="evenodd" d="M655.679 84.9481C651.122 84.8491 647.51 81.0781 647.612 76.5241C647.711 71.9701 651.482 68.3581 656.033 68.4571C660.59 68.5561 664.202 72.3271 664.103 76.8811C664.001 81.4351 660.233 85.0471 655.679 84.9481Z" fill="#D1D9E0"/>
<path id="Fill 43" fill-rule="evenodd" clip-rule="evenodd" d="M655.7 625.41C651.737 625.326 648.593 622.041 648.677 618.078C648.761 614.112 652.046 610.968 656.012 611.052C659.978 611.139 663.122 614.421 663.035 618.387C662.948 622.35 659.666 625.497 655.7 625.41Z" fill="#EBECEF"/>
<path id="Stroke 45" fill-rule="evenodd" clip-rule="evenodd" d="M59.4669 194.41C57.0129 194.356 55.0659 192.325 55.1199 189.868C55.1709 187.414 57.2049 185.47 59.6589 185.521C62.1129 185.575 64.0599 187.606 64.0089 190.06C63.9549 192.517 61.9209 194.464 59.4669 194.41Z" stroke="#D2D8DF" stroke-linecap="round"/>
<path id="Fill 47" fill-rule="evenodd" clip-rule="evenodd" d="M538.198 177.202C538.198 192.997 525.391 205.801 509.599 205.801C493.801 205.801 481 192.997 481 177.202C481 161.407 493.801 148.6 509.599 148.6C525.391 148.6 538.198 161.407 538.198 177.202Z" fill="white"/>
<path id="Fill 1" fill-rule="evenodd" clip-rule="evenodd" d="M661.5 211.5C661.5 211.5 664.396 192.144 673.343 192.144C680.953 192.144 683.552 206.323 691.088 194.995C699.515 182.316 705.678 166.186 724.5 211.5H661.5ZM673.5 166.5C678.472 166.5 682.5 170.532 682.5 175.5C682.5 180.472 678.472 184.5 673.5 184.5C668.528 184.5 664.5 180.472 664.5 175.5C664.5 170.532 668.528 166.5 673.5 166.5ZM734.85 151.5H651.15C648.583 151.5 646.5 153.58 646.5 156.143V224.857C646.5 227.42 648.583 229.5 651.15 229.5H734.85C737.417 229.5 739.5 227.42 739.5 224.857V156.143C739.5 153.58 737.417 151.5 734.85 151.5Z" fill="url(#paint0_linear_1995_85988)"/>
<path id="Fill 1 Copy" fill-rule="evenodd" clip-rule="evenodd" d="M136.5 511.5C136.5 511.5 134.018 492.144 126.349 492.144C119.826 492.144 117.598 506.323 111.139 494.995C103.915 482.316 98.6332 466.186 82.5 511.5H136.5ZM126 466.5C130.143 466.5 133.5 469.86 133.5 474C133.5 478.143 130.143 481.5 126 481.5C121.857 481.5 118.5 478.143 118.5 474C118.5 469.86 121.857 466.5 126 466.5ZM141.9 460.5H77.1C75.1128 460.5 73.5 462.1 73.5 464.071V516.929C73.5 518.9 75.1128 520.5 77.1 520.5H141.9C143.887 520.5 145.5 518.9 145.5 516.929V464.071C145.5 462.1 143.887 460.5 141.9 460.5Z" fill="url(#paint1_linear_1995_85988)"/>
<g id="Camera">
<path id="Fill 12" fill-rule="evenodd" clip-rule="evenodd" d="M500.462 290.343H490.97V283.352C490.97 278.483 486.931 274.5 482.003 274.5H464.902C459.981 274.5 455.949 278.483 455.949 283.352V290.343H309.538C288.531 290.343 271.5 307.168 271.5 327.92V440.923C271.5 461.675 288.531 478.5 309.538 478.5H500.462C521.469 478.5 538.5 461.675 538.5 440.923V327.92C538.5 307.168 521.469 290.343 500.462 290.343Z" fill="#435059"/>
<path id="Fill 15" fill-rule="evenodd" clip-rule="evenodd" d="M451.5 388.5C451.5 423.291 423.299 451.5 388.504 451.5C353.708 451.5 325.5 423.291 325.5 388.5C325.5 353.702 353.708 325.5 388.504 325.5C423.299 325.5 451.5 353.702 451.5 388.5Z" fill="#343E44"/>
<path id="Fill 17" fill-rule="evenodd" clip-rule="evenodd" d="M445.5 385.5C445.5 418.635 418.637 445.5 385.497 445.5C352.363 445.5 325.5 418.635 325.5 385.5C325.5 352.358 352.363 325.5 385.497 325.5C418.637 325.5 445.5 352.358 445.5 385.5Z" fill="#485D67"/>
<path id="Fill 19" fill-rule="evenodd" clip-rule="evenodd" d="M424.5 384C424.5 404.706 407.705 421.5 386.997 421.5C366.283 421.5 349.5 404.706 349.5 384C349.5 363.294 366.283 346.5 386.997 346.5C407.705 346.5 424.5 363.294 424.5 384Z" fill="url(#paint2_linear_1995_85988)"/>
<path id="Fill 21" fill-rule="evenodd" clip-rule="evenodd" d="M391.5 376.5C391.5 383.128 386.128 388.5 379.5 388.5C372.872 388.5 367.5 383.128 367.5 376.5C367.5 369.872 372.872 364.5 379.5 364.5C386.128 364.5 391.5 369.872 391.5 376.5Z" fill="white"/>
</g>
</g>
<defs>
<linearGradient id="paint0_linear_1995_85988" x1="693" y1="112.5" x2="616.191" y2="204.08" gradientUnits="userSpaceOnUse">
<stop stop-color="#FF8960"/>
<stop offset="1" stop-color="#FF62A5"/>
</linearGradient>
<linearGradient id="paint1_linear_1995_85988" x1="73.5" y1="460.5" x2="73.5" y2="520.5" gradientUnits="userSpaceOnUse">
<stop stop-color="#FAD961"/>
<stop offset="1" stop-color="#F76B1C"/>
</linearGradient>
<linearGradient id="paint2_linear_1995_85988" x1="387" y1="309" x2="312" y2="384" gradientUnits="userSpaceOnUse">
<stop stop-color="#FF8960"/>
<stop offset="1" stop-color="#FF62A5"/>
</linearGradient>
</defs>
</svg>
