<svg width="792" height="693" viewBox="0 0 792 693" fill="none" xmlns="http://www.w3.org/2000/svg">
<g id="Enable Push Notifications">
<path id="Fill 1" fill-rule="evenodd" clip-rule="evenodd" d="M503.405 467.828L501.104 476.915L273.965 419.417L276.263 410.33C294.437 414.929 308.534 397.424 310.814 388.43L323.921 336.641C334.301 298.952 368.621 272.873 407.717 272.969C411.065 260.468 423.917 253.052 436.415 256.403C448.916 259.754 456.335 272.603 452.981 285.104C487.268 304.241 504.842 343.688 496.133 381.974L483.44 432.128C480.746 442.757 494.321 465.527 503.405 467.828Z" fill="#F1F2F7"/>
<path id="Fill 3" fill-rule="evenodd" clip-rule="evenodd" d="M346.711 447.504C348.892 470.694 369.457 487.728 392.647 485.55C405.277 484.365 416.704 477.555 423.76 467.007L346.711 447.504Z" fill="#FFDA3E"/>
<path id="Stroke 5" fill-rule="evenodd" clip-rule="evenodd" d="M715.594 379.825C715.594 551.788 576.187 691.195 404.224 691.195C232.261 691.195 92.8572 551.788 92.8572 379.825C92.8572 207.862 232.261 68.4551 404.224 68.4551C576.187 68.4551 715.594 207.862 715.594 379.825Z" stroke="#E9EAEC" stroke-dasharray="5.02 5.02"/>
<path id="Stroke 7" fill-rule="evenodd" clip-rule="evenodd" d="M635.449 379.825C635.449 507.526 531.925 611.05 404.224 611.05C276.52 611.05 173.002 507.526 173.002 379.825C173.002 252.124 276.52 148.6 404.224 148.6C531.925 148.6 635.449 252.124 635.449 379.825Z" stroke="#E9EAEC" stroke-dasharray="5.05 5.05"/>
<path id="Fill 9" fill-rule="evenodd" clip-rule="evenodd" d="M623.279 166.718C627.767 166.718 631.397 170.345 631.397 174.836C631.397 179.327 627.767 182.954 623.279 182.954C618.788 182.954 615.158 179.327 615.158 174.836C615.158 170.345 618.788 166.718 623.279 166.718ZM647.633 166.718C652.124 166.718 655.751 170.345 655.751 174.836C655.751 179.327 652.124 182.954 647.633 182.954C643.142 182.954 639.515 179.327 639.515 174.836C639.515 170.345 643.142 166.718 647.633 166.718ZM671.987 166.718C676.478 166.718 680.105 170.345 680.105 174.836C680.105 179.327 676.478 182.954 671.987 182.954C667.496 182.954 663.869 179.327 663.869 174.836C663.869 170.345 667.496 166.718 671.987 166.718ZM614.195 219.488H652.937C656.591 219.488 656.591 219.515 658.34 220.808C660.092 222.101 680.084 235.724 680.084 235.724V219.488H681.02C691.724 219.488 700.376 211.421 700.376 201.374V148.376C700.376 138.329 691.703 130.184 681.02 130.184H614.195C603.515 130.184 594.839 138.329 594.839 148.376V201.374C594.839 211.421 603.515 219.488 614.195 219.488Z" fill="url(#paint0_linear_1997_84939)"/>
<path id="Fill 11" fill-rule="evenodd" clip-rule="evenodd" d="M145.28 260.26C145.28 263.197 142.91 265.567 139.97 265.567C137.036 265.567 134.666 263.197 134.666 260.26C134.666 257.323 137.036 254.95 139.97 254.95C142.91 254.95 145.28 257.323 145.28 260.26ZM129.356 260.26C129.356 263.197 126.983 265.567 124.049 265.567C121.112 265.567 118.739 263.197 118.739 260.26C118.739 257.323 121.112 254.95 124.049 254.95C126.983 254.95 129.356 257.323 129.356 260.26ZM113.432 260.26C113.432 263.197 111.059 265.567 108.122 265.567C105.188 265.567 102.815 263.197 102.815 260.26C102.815 257.323 105.188 254.95 108.122 254.95C111.059 254.95 113.432 257.323 113.432 260.26ZM158.57 277.612V242.959C158.57 236.389 152.894 231.064 145.913 231.064H102.218C95.2343 231.064 89.5613 236.389 89.5613 242.959V277.612C89.5613 284.179 95.2193 289.453 102.218 289.453H102.833V300.073C102.833 300.073 115.904 291.163 117.047 290.317C118.193 289.471 118.193 289.453 120.581 289.453H145.913C152.894 289.453 158.57 284.179 158.57 277.612Z" fill="url(#paint1_linear_1997_84939)"/>
<path id="Fill 13" fill-rule="evenodd" clip-rule="evenodd" d="M346.729 447.557C348.91 470.747 369.475 487.781 392.665 485.603C405.295 484.418 416.722 477.608 423.778 467.06L346.729 447.557Z" fill="url(#paint2_linear_1997_84939)"/>
<path id="Fill 15" fill-rule="evenodd" clip-rule="evenodd" d="M529.866 308.219C535.155 314.582 539.127 322.076 541.827 330.02C544.578 337.967 545.922 346.409 546.06 354.857C546.06 359.084 545.757 363.305 545.211 367.49C544.491 371.654 543.66 375.788 542.352 379.793C539.823 387.806 536.001 395.405 530.793 401.873C530.568 402.152 530.166 402.194 529.887 401.972C529.671 401.795 529.599 401.507 529.683 401.255C532.395 393.536 534.642 385.922 536.151 378.197C536.43 376.247 536.814 374.327 537.138 372.398C537.36 370.451 537.654 368.519 537.822 366.575C537.948 364.628 538.2 362.693 538.281 360.746C538.311 358.796 538.404 356.849 538.395 354.902C538.44 347.105 537.57 339.32 536.055 331.592C534.498 323.858 532.155 316.241 529.341 308.522C529.284 308.363 529.365 308.186 529.524 308.129C529.65 308.081 529.785 308.123 529.866 308.219Z" fill="url(#paint3_linear_1997_84939)"/>
<path id="Fill 17" fill-rule="evenodd" clip-rule="evenodd" d="M559.655 310.924C564.761 316.807 568.607 323.785 571.286 331.192C573.971 338.608 575.522 346.486 575.798 354.412C576.098 362.335 575.132 370.3 573.014 377.887C570.899 385.471 567.602 392.719 562.952 398.965C562.922 399.004 562.865 399.013 562.829 398.986C562.799 398.962 562.787 398.923 562.796 398.89C564.722 391.372 566.336 384.058 567.314 376.705C568.292 369.355 568.613 362.008 568.34 354.688C568.04 347.371 567.155 340.078 565.598 332.839C564.047 325.591 561.854 318.439 559.355 311.098C559.325 311.005 559.373 310.906 559.466 310.873C559.535 310.849 559.61 310.87 559.655 310.924Z" fill="url(#paint4_linear_1997_84939)"/>
<path id="Fill 19" fill-rule="evenodd" clip-rule="evenodd" d="M287.376 348.468C285.756 340.401 285.738 331.974 287.022 323.736C288.264 315.477 290.934 307.425 294.642 299.904C298.44 292.428 303.294 285.471 309.156 279.519C314.976 273.546 321.726 268.485 329.172 264.951C329.307 264.888 329.463 264.945 329.526 265.077C329.577 265.185 329.55 265.311 329.463 265.389C323.406 270.888 317.829 276.621 312.9 282.828C308.007 289.047 303.678 295.656 300.18 302.691C296.586 309.681 293.844 317.088 291.759 324.729C289.707 332.388 288.441 340.293 287.634 348.456C287.625 348.525 287.562 348.579 287.49 348.573C287.433 348.567 287.388 348.522 287.376 348.468Z" fill="url(#paint5_linear_1997_84939)"/>
<path id="Fill 21" fill-rule="evenodd" clip-rule="evenodd" d="M261.946 332.519C260.413 324.944 260.386 317.051 261.499 309.323C262.648 301.595 264.943 294.002 268.33 286.931C271.681 279.848 276.007 273.221 281.212 267.416C286.393 261.602 292.381 256.52 299.053 252.68C293.605 258.104 288.601 263.762 284.236 269.846C279.886 275.936 276.103 282.359 273.037 289.115C270.001 295.88 267.565 302.906 265.828 310.157C264.043 317.405 262.972 324.842 262.201 332.507C262.192 332.576 262.132 332.627 262.057 332.621C262.003 332.615 261.955 332.573 261.946 332.519Z" fill="url(#paint6_linear_1997_84939)"/>
<path id="Fill 23" fill-rule="evenodd" clip-rule="evenodd" d="M503.423 467.882C503.423 467.882 489.989 462.662 482.927 455.213C473.093 444.842 473.741 433.526 480.389 411.686C488.21 385.679 487.997 358.283 484.985 345.725C474.494 301.967 452.999 285.158 452.999 285.158C487.286 304.295 504.86 343.742 496.151 382.028L483.458 432.182C481.232 439.592 494.339 465.581 503.423 467.882L501.122 476.969L503.423 467.882Z" fill="#D8DBEA"/>
<path id="Stroke 25" d="M34.0342 421.747L28.2532 421.57" stroke="#D2D8DF" stroke-linecap="round"/>
<path id="Stroke 27" d="M29.887 410.783L25.741 414.656" stroke="#D2D8DF" stroke-linecap="round"/>
<path id="Stroke 29" d="M19.0809 405.779L18.9939 411.431" stroke="#D2D8DF" stroke-linecap="round"/>
<path id="Stroke 31" d="M7.94385 409.658L11.9698 413.78" stroke="#D2D8DF" stroke-linecap="round"/>
<path id="Stroke 33" d="M3 420.158L8.778 420.335" stroke="#D2D8DF" stroke-linecap="round"/>
<path id="Stroke 35" d="M7.14551 431.121L11.2945 427.248" stroke="#D2D8DF" stroke-linecap="round"/>
<path id="Stroke 37" d="M17.9531 436.123L18.0401 430.471" stroke="#D2D8DF" stroke-linecap="round"/>
<path id="Stroke 39" d="M29.0902 432.243L25.0642 428.121" stroke="#D2D8DF" stroke-linecap="round"/>
<path id="Stroke 41" d="M787.943 341.168L785.402 343.919" stroke="#D2D8DF" stroke-linecap="round"/>
<path id="Stroke 43" d="M776.013 343.559L777.93 345.326" stroke="#D2D8DF" stroke-linecap="round"/>
<path id="Stroke 45" d="M774.079 355.749L776.62 352.998" stroke="#D2D8DF" stroke-linecap="round"/>
<path id="Stroke 47" d="M786.006 353.359L784.092 351.592" stroke="#D2D8DF" stroke-linecap="round"/>
<path id="Stroke 49" d="M555.211 17.8427L549.064 17.6777" stroke="#D2D8DF" stroke-linecap="round"/>
<path id="Stroke 51" d="M539.306 3L539.213 8.253" stroke="#D2D8DF" stroke-linecap="round"/>
<path id="Stroke 53" d="M522.199 16.3594L528.346 16.5214" stroke="#D2D8DF" stroke-linecap="round"/>
<path id="Stroke 55" d="M538.104 31.2042L538.197 25.9512" stroke="#D2D8DF" stroke-linecap="round"/>
<path id="Fill 57" fill-rule="evenodd" clip-rule="evenodd" d="M100.011 585.019C95.5894 586.342 88.2244 592.84 85.7044 600.544C85.2814 593.386 80.7364 584.389 75.7354 583.093C81.8374 580.936 88.4464 573.007 90.2044 566.326C89.8864 573.328 96.2434 583.495 100.011 585.019Z" fill="#EBECEF"/>
<path id="Fill 59" fill-rule="evenodd" clip-rule="evenodd" d="M203.578 45.9762C200.167 46.5792 194.122 50.7792 191.578 56.2992C191.881 50.9322 189.274 43.8372 185.662 42.4392C190.393 41.3592 196.003 36.0252 197.89 31.2012C197.047 36.3912 200.902 44.5152 203.578 45.9762Z" fill="#EBECEF"/>
<path id="Fill 61" fill-rule="evenodd" clip-rule="evenodd" d="M655.679 84.9481C651.122 84.8491 647.51 81.0781 647.612 76.5241C647.711 71.9701 651.482 68.3581 656.033 68.4571C660.59 68.5561 664.202 72.3271 664.103 76.8811C664.001 81.4351 660.233 85.0471 655.679 84.9481Z" fill="#D1D9E0"/>
<path id="Fill 63" fill-rule="evenodd" clip-rule="evenodd" d="M655.699 625.41C651.736 625.326 648.592 622.041 648.676 618.078C648.76 614.112 652.045 610.968 656.011 611.052C659.977 611.139 663.121 614.421 663.034 618.387C662.947 622.35 659.665 625.497 655.699 625.41Z" fill="#EBECEF"/>
<path id="Stroke 65" fill-rule="evenodd" clip-rule="evenodd" d="M59.4672 194.41C57.0132 194.356 55.0662 192.325 55.1202 189.868C55.1712 187.414 57.2052 185.47 59.6592 185.521C62.1132 185.575 64.0602 187.606 64.0092 190.06C63.9552 192.517 61.9212 194.464 59.4672 194.41Z" stroke="#D2D8DF" stroke-linecap="round"/>
</g>
<defs>
<linearGradient id="paint0_linear_1997_84939" x1="594.839" y1="130.184" x2="594.839" y2="235.724" gradientUnits="userSpaceOnUse">
<stop stop-color="#FAD961"/>
<stop offset="1" stop-color="#F76B1C"/>
</linearGradient>
<linearGradient id="paint1_linear_1997_84939" x1="124.066" y1="196.56" x2="55.0568" y2="265.569" gradientUnits="userSpaceOnUse">
<stop stop-color="#FF8960"/>
<stop offset="1" stop-color="#FF62A5"/>
</linearGradient>
<linearGradient id="paint2_linear_1997_84939" x1="385.253" y1="428.44" x2="354.805" y2="489.798" gradientUnits="userSpaceOnUse">
<stop stop-color="#FF8960"/>
<stop offset="1" stop-color="#FF62A5"/>
</linearGradient>
<linearGradient id="paint3_linear_1997_84939" x1="537.691" y1="261.107" x2="505.245" y2="266.884" gradientUnits="userSpaceOnUse">
<stop stop-color="#FF8960"/>
<stop offset="1" stop-color="#FF62A5"/>
</linearGradient>
<linearGradient id="paint4_linear_1997_84939" x1="567.599" y1="266.794" x2="535.707" y2="272.766" gradientUnits="userSpaceOnUse">
<stop stop-color="#FF8960"/>
<stop offset="1" stop-color="#FF62A5"/>
</linearGradient>
<linearGradient id="paint5_linear_1997_84939" x1="307.828" y1="223.102" x2="239.397" y2="258.645" gradientUnits="userSpaceOnUse">
<stop stop-color="#FF8960"/>
<stop offset="1" stop-color="#FF62A5"/>
</linearGradient>
<linearGradient id="paint6_linear_1997_84939" x1="279.888" y1="212.709" x2="217.557" y2="242.596" gradientUnits="userSpaceOnUse">
<stop stop-color="#FF8960"/>
<stop offset="1" stop-color="#FF62A5"/>
</linearGradient>
</defs>
</svg>
