<svg width="325" height="289" viewBox="0 0 325 289" fill="none" xmlns="http://www.w3.org/2000/svg">
<path d="M351 -61H-18V248H351V-61Z" fill="#A5DCF0"/>
<path d="M65.883 242.554L-39 242.648V288.066H360V243.368H242.655C242.114 229.307 230.55 218.075 216.361 218.075C212.549 218.075 208.931 218.894 205.661 220.348C203.973 213.573 197.869 208.546 190.573 208.546C190.568 208.546 190.563 208.546 190.558 208.546C190.548 208.263 190.529 207.985 190.494 207.712C190.543 207.32 190.573 206.923 190.573 206.521C190.573 201.334 186.37 197.125 181.178 197.125C179.992 197.125 178.861 197.353 177.813 197.756C177.277 194.167 174.726 191.239 171.337 190.182L166.746 178.066H159.306L154.8 189.963C154.219 189.829 153.619 189.755 152.998 189.755C148.547 189.755 144.934 193.363 144.934 197.82C144.934 198.222 144.973 198.609 145.033 198.996C145.018 199.086 145.003 199.17 144.993 199.259C143.693 198.778 142.298 198.5 140.829 198.5C134.209 198.5 128.839 203.86 128.824 210.481C128.412 210.412 127.99 210.367 127.553 210.367C124.451 210.367 121.786 212.203 120.565 214.844C116.411 212.104 111.443 210.511 106.098 210.511C91.5615 210.511 79.7794 222.294 79.7794 236.831C79.7794 237.218 79.7942 237.6 79.8091 237.982C79.8042 238.107 79.8042 238.236 79.7992 238.36C78.4245 236.245 76.0521 234.846 73.3423 234.846C69.0891 234.846 65.2626 239.04 65.2626 243.293" fill="white"/>
<path d="M221.555 200.72C221.476 199.239 220.351 198.066 218.973 198.066C217.858 198.066 216.911 198.835 216.546 199.915C216.068 199.342 215.379 198.978 214.61 198.978C213.167 198.978 212 200.259 212 201.831C212 202.917 212.553 203.86 213.368 204.341C212.97 204.838 212.731 205.488 212.731 206.195C212.731 207.757 213.889 209.023 215.318 209.023C215.81 209.023 216.274 208.869 216.668 208.608C216.668 208.608 216.672 208.608 216.677 208.613C216.654 208.746 216.639 208.879 216.639 209.018C216.639 210.15 217.478 211.066 218.514 211.066C219.55 211.066 220.389 210.15 220.389 209.018C220.389 208.854 220.37 208.69 220.337 208.536C220.656 208.639 220.993 208.69 221.345 208.69C223.364 208.69 225 206.902 225 204.694C225 202.487 223.477 200.827 221.56 200.704L221.555 200.72Z" fill="white"/>
<path d="M126.291 188.515C126.205 187.149 124.994 186.066 123.51 186.066C122.309 186.066 121.289 186.775 120.895 187.773C120.381 187.243 119.639 186.908 118.811 186.908C117.257 186.908 116 188.089 116 189.54C116 190.542 116.596 191.412 117.474 191.856C117.045 192.315 116.787 192.915 116.787 193.567C116.787 195.009 118.034 196.176 119.573 196.176C120.103 196.176 120.603 196.034 121.027 195.793C121.027 195.793 121.032 195.793 121.037 195.798C121.012 195.921 120.996 196.044 120.996 196.176C120.996 197.22 121.9 198.066 123.015 198.066C124.131 198.066 125.034 197.22 125.034 196.176C125.034 196.025 125.014 195.873 124.978 195.732C125.322 195.826 125.69 195.873 126.063 195.873C128.239 195.873 130 194.224 130 192.187C130 190.15 128.36 188.619 126.296 188.505L126.291 188.515Z" fill="white"/>
<path d="M234.413 208.088C234.374 207.52 233.856 207.066 233.223 207.066C232.71 207.066 232.269 207.362 232.1 207.776C231.877 207.555 231.563 207.414 231.205 207.414C230.537 207.414 230 207.908 230 208.511C230 208.93 230.256 209.291 230.634 209.476C230.45 209.666 230.339 209.917 230.339 210.19C230.339 210.789 230.871 211.278 231.534 211.278C231.761 211.278 231.974 211.221 232.158 211.119C232.148 211.168 232.139 211.221 232.139 211.278C232.139 211.714 232.526 212.066 233.005 212.066C233.484 212.066 233.871 211.714 233.871 211.278C233.871 211.216 233.861 211.155 233.847 211.093C233.997 211.132 234.152 211.155 234.311 211.155C235.245 211.155 236 210.467 236 209.617C236 208.767 235.298 208.128 234.413 208.084V208.088Z" fill="white"/>
<path d="M142.88 181.495C142.832 180.697 142.138 180.066 141.293 180.066C140.609 180.066 140.023 180.482 139.799 181.061C139.505 180.753 139.081 180.557 138.607 180.557C137.718 180.557 137 181.243 137 182.093C137 182.677 137.342 183.186 137.845 183.447C137.601 183.714 137.454 184.064 137.454 184.447C137.454 185.287 138.167 185.969 139.046 185.969C139.349 185.969 139.632 185.89 139.877 185.745C139.877 185.745 139.877 185.745 139.882 185.745C139.867 185.815 139.857 185.89 139.857 185.964C139.857 186.571 140.375 187.066 141.01 187.066C141.645 187.066 142.162 186.571 142.162 185.964C142.162 185.876 142.148 185.787 142.128 185.707C142.324 185.764 142.534 185.792 142.748 185.792C143.989 185.792 145 184.83 145 183.639C145 182.448 144.062 181.556 142.88 181.491V181.495Z" fill="white"/>
<path d="M114.413 201.293C114.374 200.611 113.856 200.066 113.223 200.066C112.71 200.066 112.269 200.421 112.1 200.918C111.877 200.653 111.563 200.484 111.205 200.484C110.537 200.484 110 201.076 110 201.8C110 202.303 110.256 202.736 110.634 202.958C110.45 203.185 110.339 203.487 110.339 203.814C110.339 204.533 110.871 205.12 111.534 205.12C111.761 205.12 111.974 205.051 112.158 204.93C112.148 204.988 112.139 205.051 112.139 205.12C112.139 205.644 112.526 206.066 113.005 206.066C113.484 206.066 113.871 205.644 113.871 205.12C113.871 205.046 113.861 204.972 113.847 204.898C113.997 204.946 114.152 204.972 114.311 204.972C115.245 204.972 116 204.147 116 203.127C116 202.107 115.298 201.34 114.413 201.288V201.293Z" fill="white"/>
<path d="M31.931 98.6963C29.4495 98.6963 27.1294 99.3789 25.1414 100.56C24.6663 93.641 18.9099 88.1752 11.8666 88.1752C10.1508 88.1752 8.51337 88.5027 7.00508 89.0931C5.08628 82.6771 -0.854622 78 -7.8933 78C-16.4818 78 -23.4467 84.9649 -23.4467 93.5534C-23.4467 93.7748 -23.4374 93.9915 -23.4282 94.2083C-23.4328 94.2083 -23.4374 94.2083 -23.4467 94.2083C-32.0351 94.2083 -39 101.173 -39 109.762C-39 118.35 -32.0351 125.315 -23.4467 125.315C-22.9116 125.315 -22.3812 125.287 -21.8599 125.237H30.4781C30.9532 125.287 31.4375 125.315 31.931 125.315C39.2787 125.315 45.2381 119.356 45.2381 112.008C45.2381 104.66 39.2787 98.7009 31.931 98.7009V98.6963Z" fill="white"/>
<path d="M286.692 147.563C288.312 147.563 289.828 148.01 291.126 148.783C291.437 144.249 295.195 140.665 299.792 140.665C300.914 140.665 301.981 140.88 302.964 141.268C304.216 137.064 308.097 134 312.694 134C318.301 134 322.847 138.563 322.847 144.191C322.847 144.336 322.843 144.477 322.836 144.619C322.836 144.619 322.843 144.619 322.847 144.619C328.453 144.619 333 149.182 333 154.809C333 160.437 328.453 165 322.847 165C322.496 165 322.153 164.982 321.809 164.949H287.636C287.325 164.982 287.01 165 286.688 165C281.888 165 278 161.094 278 156.28C278 151.466 281.892 147.56 286.688 147.56L286.692 147.563Z" fill="white"/>
<path d="M0.136968 163.081C1.26703 163.081 2.32791 163.39 3.23196 163.93C3.44875 160.775 6.07326 158.284 9.28356 158.284C10.0677 158.284 10.8149 158.432 11.4976 158.704C12.3739 155.779 15.0815 153.648 18.2918 153.648C22.2078 153.648 25.3812 156.822 25.3812 160.738C25.3812 160.839 25.3812 160.936 25.372 161.038C25.372 161.038 25.3766 161.038 25.3812 161.038C29.2972 161.038 32.4706 164.211 32.4706 168.127C32.4706 172.043 29.2972 175.216 25.3812 175.216C25.1367 175.216 24.8969 175.203 24.657 175.18H0.796556C0.579768 175.203 0.358368 175.216 0.136968 175.216C-3.21171 175.216 -5.92847 172.5 -5.92847 169.151C-5.92847 165.802 -3.21171 163.086 0.136968 163.086V163.081Z" fill="white"/>
<path d="M281.763 46.2538C280.338 46.2538 279.005 46.6458 277.866 47.3239C277.594 43.3525 274.286 40.216 270.246 40.216C269.374 40.216 268.539 40.3728 267.755 40.6404C266.63 37.0011 263.235 34.3535 259.227 34.3535C258.927 34.3535 258.627 34.372 258.336 34.4043C254.591 34.6395 251.468 37.1764 250.389 40.6265C249.605 40.3544 248.765 40.1976 247.889 40.1976C243.849 40.1976 240.541 43.3341 240.269 47.3054C239.13 46.6274 237.797 46.2353 236.372 46.2353C232.151 46.2353 228.733 49.6532 228.733 53.8736C228.733 58.0941 232.151 61.5119 236.372 61.5119C236.653 61.5119 236.93 61.4935 237.207 61.4658H248.941C249.282 61.5073 249.633 61.5304 249.983 61.5304C250.292 61.5304 250.597 61.5165 250.896 61.4842H267.649C267.82 61.4935 267.99 61.5119 268.161 61.5119C268.332 61.5119 268.502 61.4935 268.673 61.4842H280.938C281.21 61.5119 281.491 61.5304 281.773 61.5304C285.993 61.5304 289.411 58.1125 289.411 53.8921C289.411 49.6716 285.993 46.2538 281.773 46.2538H281.763Z" fill="white"/>
<path d="M171.819 156.924H153.602C153.602 156.924 147.629 163.18 148.453 172.39C148.453 172.39 150.141 170.479 151.482 169.486C151.725 169.307 152.063 169.511 152.018 169.814C151.695 171.894 151.973 178.135 162.713 188.736C173.453 178.13 173.731 171.894 173.408 169.814C173.363 169.516 173.696 169.307 173.939 169.486C175.28 170.479 176.968 172.39 176.968 172.39C177.792 163.18 171.819 156.924 171.819 156.924Z" fill="url(#paint0_linear_2004_85194)"/>
<path d="M162.658 149.824C162.658 149.824 150.995 159.089 162.658 175.033C174.322 159.079 162.658 149.824 162.658 149.824Z" fill="#FFE697"/>
<path d="M162.659 155.742C162.659 155.742 155.687 161.278 162.659 170.807C169.63 161.273 162.659 155.742 162.659 155.742Z" fill="white"/>
<path d="M149.57 152.742L150.896 155.299C151.462 156.387 152.584 157.072 153.811 157.072H171.382C172.609 157.072 173.731 156.387 174.297 155.299L175.623 152.742H149.575H149.57Z" fill="#949494" stroke="#424242" stroke-width="2" stroke-miterlimit="10"/>
<path d="M145.817 147.896L147.525 151.188C148.25 152.589 149.699 153.467 151.278 153.467H173.915C175.494 153.467 176.939 152.589 177.668 151.188L179.377 147.896H145.822H145.817Z" fill="#4D4D4D" stroke="#424242" stroke-width="2" stroke-miterlimit="10"/>
<path d="M178.771 122.689C178.771 122.689 207.326 132.496 205.508 161.195C205.508 161.195 181.467 136.701 168.384 141.945L178.771 122.694V122.689Z" fill="#E02424"/>
<path d="M146.646 122.689C146.646 122.689 118.091 132.496 119.908 161.195C119.908 161.195 143.949 136.701 157.033 141.945L146.646 122.694V122.689Z" fill="#E02424"/>
<path d="M176.457 67.828C173.155 59.5312 168.651 51.4329 162.584 44V44.0348L162.574 44C156.571 51.3584 152.102 59.3624 148.805 67.5698C155.225 66.0356 164.918 64.9979 176.452 67.828H176.457Z" fill="#E02424"/>
<path d="M176.839 68.8034L176.457 67.8302C161.184 63.9127 148.811 67.572 148.811 67.572L148.324 68.8034C135.702 101.489 141.422 136.971 143.453 146.986C143.781 148.599 145.201 149.756 146.849 149.756H178.304C179.952 149.756 181.372 148.599 181.7 146.986C183.731 136.971 189.456 101.489 176.829 68.8034H176.839Z" fill="white"/>
<path d="M162.018 105.955C168.487 105.955 173.731 100.711 173.731 94.2422C173.731 87.7734 168.487 82.5293 162.018 82.5293C155.549 82.5293 150.305 87.7734 150.305 94.2422C150.305 100.711 155.549 105.955 162.018 105.955Z" fill="#043146" stroke="#424242" stroke-width="2" stroke-miterlimit="10"/>
<path d="M165.976 103.09C170.557 101.216 172.753 95.9834 170.879 91.4019C169.006 86.8205 163.773 84.6252 159.192 86.4985C154.61 88.3719 152.415 93.6046 154.288 98.1861C156.162 102.768 161.394 104.963 165.976 103.09Z" fill="#7C7C7C" stroke="#424242" stroke-width="2" stroke-miterlimit="10"/>
<path d="M162.018 103.123C166.921 103.123 170.896 99.148 170.896 94.245C170.896 89.3419 166.921 85.3672 162.018 85.3672C157.115 85.3672 153.14 89.3419 153.14 94.245C153.14 99.148 157.115 103.123 162.018 103.123Z" fill="#3EC2E5" stroke="#424242" stroke-width="2" stroke-miterlimit="10"/>
<path d="M162.584 86.8706C166.099 86.8706 169.128 88.9212 170.568 91.8854C169.53 88.1317 166.104 85.3711 162.018 85.3711C157.117 85.3711 153.14 89.3433 153.14 94.2489C153.14 95.6342 153.468 96.945 154.034 98.1118C153.825 97.3571 153.706 96.5676 153.706 95.7484C153.706 90.8477 157.678 86.8706 162.584 86.8706Z" fill="black" stroke="#424242" stroke-width="2" stroke-miterlimit="10"/>
<path d="M162.708 126.264C153.14 148.041 162.708 166.869 162.708 166.869C162.708 166.869 172.276 148.041 162.708 126.264Z" fill="#E02424"/>
<defs>
<linearGradient id="paint0_linear_2004_85194" x1="162.708" y1="156.924" x2="162.708" y2="188.741" gradientUnits="userSpaceOnUse">
<stop stop-color="#F7BD6F"/>
<stop offset="0.45" stop-color="#F29857"/>
<stop offset="1" stop-color="#ED6637"/>
</linearGradient>
</defs>
</svg>
